<mxfile host="app.diagrams.net" modified="2022-07-01T19:26:26.743Z" agent="5.0 (X11; Linux x86_64) AppleWebKit/537.36 (KHTML, like Gecko) Chrome/102.0.0.0 Safari/537.36" etag="wTqsN7nadIwBG-IeLJGq" version="20.0.4" type="github">
  <diagram name="Page-1" id="7e0a89b8-554c-2b80-1dc8-d5c74ca68de4">
    <mxGraphModel dx="1422" dy="882" grid="1" gridSize="10" guides="1" tooltips="1" connect="1" arrows="1" fold="1" page="1" pageScale="1" pageWidth="1100" pageHeight="850" background="none" math="0" shadow="0">
      <root>
        <mxCell id="0" />
        <mxCell id="1" parent="0" />
        <mxCell id="zlY2UUdzKbEh946Eg5NX-12" style="edgeStyle=orthogonalEdgeStyle;rounded=0;orthogonalLoop=1;jettySize=auto;html=1;exitX=0.7;exitY=1;exitDx=0;exitDy=0;exitPerimeter=0;entryX=0.7;entryY=0;entryDx=0;entryDy=0;entryPerimeter=0;endArrow=none;endFill=0;" parent="1" source="zlY2UUdzKbEh946Eg5NX-1" target="zlY2UUdzKbEh946Eg5NX-3" edge="1">
          <mxGeometry relative="1" as="geometry" />
        </mxCell>
        <mxCell id="zlY2UUdzKbEh946Eg5NX-15" style="edgeStyle=orthogonalEdgeStyle;rounded=0;orthogonalLoop=1;jettySize=auto;html=1;exitX=0.7;exitY=0;exitDx=0;exitDy=0;exitPerimeter=0;entryX=0.7;entryY=1;entryDx=0;entryDy=0;entryPerimeter=0;endArrow=none;endFill=0;" parent="1" source="zlY2UUdzKbEh946Eg5NX-1" target="zlY2UUdzKbEh946Eg5NX-9" edge="1">
          <mxGeometry relative="1" as="geometry" />
        </mxCell>
        <mxCell id="zlY2UUdzKbEh946Eg5NX-16" style="edgeStyle=orthogonalEdgeStyle;rounded=0;orthogonalLoop=1;jettySize=auto;html=1;exitX=0.7;exitY=1;exitDx=0;exitDy=0;exitPerimeter=0;endArrow=none;endFill=0;" parent="1" source="zlY2UUdzKbEh946Eg5NX-1" edge="1">
          <mxGeometry relative="1" as="geometry">
            <mxPoint x="680" y="460" as="targetPoint" />
            <Array as="points">
              <mxPoint x="497" y="460" />
              <mxPoint x="680" y="460" />
            </Array>
          </mxGeometry>
        </mxCell>
        <mxCell id="yDMT6fcXxwUuumCuaF8Q-2" style="edgeStyle=orthogonalEdgeStyle;rounded=0;orthogonalLoop=1;jettySize=auto;html=1;entryX=0;entryY=0.5;entryDx=0;entryDy=0;entryPerimeter=0;exitX=0;exitY=0.5;exitDx=0;exitDy=0;exitPerimeter=0;strokeColor=#007FFF;endArrow=none;endFill=0;strokeWidth=2;" edge="1" parent="1" source="zlY2UUdzKbEh946Eg5NX-1" target="zlY2UUdzKbEh946Eg5NX-4">
          <mxGeometry relative="1" as="geometry" />
        </mxCell>
        <mxCell id="zlY2UUdzKbEh946Eg5NX-1" value="" style="verticalLabelPosition=bottom;shadow=0;dashed=0;align=center;html=1;verticalAlign=top;shape=mxgraph.electrical.mosfets1.mosfet_p_no_bulk;" parent="1" vertex="1">
          <mxGeometry x="430" y="300" width="95" height="100" as="geometry" />
        </mxCell>
        <mxCell id="zlY2UUdzKbEh946Eg5NX-7" style="edgeStyle=orthogonalEdgeStyle;rounded=0;orthogonalLoop=1;jettySize=auto;html=1;exitX=0.7;exitY=1;exitDx=0;exitDy=0;exitPerimeter=0;entryX=0.7;entryY=1;entryDx=0;entryDy=0;entryPerimeter=0;endArrow=none;endFill=0;" parent="1" source="zlY2UUdzKbEh946Eg5NX-2" target="zlY2UUdzKbEh946Eg5NX-4" edge="1">
          <mxGeometry relative="1" as="geometry" />
        </mxCell>
        <mxCell id="zlY2UUdzKbEh946Eg5NX-2" value="" style="verticalLabelPosition=bottom;shadow=0;dashed=0;align=center;html=1;verticalAlign=top;shape=mxgraph.electrical.mosfets1.mosfet_n_no_bulk;" parent="1" vertex="1">
          <mxGeometry x="310" y="570" width="95" height="100" as="geometry" />
        </mxCell>
        <mxCell id="zlY2UUdzKbEh946Eg5NX-5" style="edgeStyle=orthogonalEdgeStyle;rounded=0;orthogonalLoop=1;jettySize=auto;html=1;exitX=0.7;exitY=1;exitDx=0;exitDy=0;exitPerimeter=0;entryX=0.7;entryY=0;entryDx=0;entryDy=0;entryPerimeter=0;endArrow=none;endFill=0;" parent="1" source="zlY2UUdzKbEh946Eg5NX-3" target="zlY2UUdzKbEh946Eg5NX-4" edge="1">
          <mxGeometry relative="1" as="geometry" />
        </mxCell>
        <mxCell id="zlY2UUdzKbEh946Eg5NX-6" style="edgeStyle=orthogonalEdgeStyle;rounded=0;orthogonalLoop=1;jettySize=auto;html=1;exitX=0.7;exitY=0;exitDx=0;exitDy=0;exitPerimeter=0;entryX=0.7;entryY=0;entryDx=0;entryDy=0;entryPerimeter=0;endArrow=none;endFill=0;" parent="1" source="zlY2UUdzKbEh946Eg5NX-3" target="zlY2UUdzKbEh946Eg5NX-2" edge="1">
          <mxGeometry relative="1" as="geometry" />
        </mxCell>
        <mxCell id="zlY2UUdzKbEh946Eg5NX-3" value="" style="verticalLabelPosition=bottom;shadow=0;dashed=0;align=center;html=1;verticalAlign=top;shape=mxgraph.electrical.mosfets1.mosfet_n_no_bulk;" parent="1" vertex="1">
          <mxGeometry x="430" y="500" width="95" height="100" as="geometry" />
        </mxCell>
        <mxCell id="zlY2UUdzKbEh946Eg5NX-8" style="edgeStyle=orthogonalEdgeStyle;rounded=0;orthogonalLoop=1;jettySize=auto;html=1;exitX=0.7;exitY=1;exitDx=0;exitDy=0;exitPerimeter=0;endArrow=open;endFill=0;" parent="1" source="zlY2UUdzKbEh946Eg5NX-4" edge="1">
          <mxGeometry relative="1" as="geometry">
            <mxPoint x="497" y="820" as="targetPoint" />
          </mxGeometry>
        </mxCell>
        <mxCell id="zlY2UUdzKbEh946Eg5NX-4" value="" style="verticalLabelPosition=bottom;shadow=0;dashed=0;align=center;html=1;verticalAlign=top;shape=mxgraph.electrical.mosfets1.mosfet_n_no_bulk;" parent="1" vertex="1">
          <mxGeometry x="430" y="650" width="95" height="100" as="geometry" />
        </mxCell>
        <mxCell id="yDMT6fcXxwUuumCuaF8Q-4" style="edgeStyle=orthogonalEdgeStyle;rounded=0;jumpStyle=arc;orthogonalLoop=1;jettySize=auto;html=1;exitX=0;exitY=0.5;exitDx=0;exitDy=0;exitPerimeter=0;entryX=0;entryY=0.5;entryDx=0;entryDy=0;entryPerimeter=0;endArrow=none;endFill=0;strokeColor=#007FFF;strokeWidth=2;" edge="1" parent="1" source="zlY2UUdzKbEh946Eg5NX-9" target="zlY2UUdzKbEh946Eg5NX-2">
          <mxGeometry relative="1" as="geometry">
            <Array as="points">
              <mxPoint x="240" y="210" />
              <mxPoint x="240" y="620" />
            </Array>
          </mxGeometry>
        </mxCell>
        <mxCell id="zlY2UUdzKbEh946Eg5NX-9" value="" style="verticalLabelPosition=bottom;shadow=0;dashed=0;align=center;html=1;verticalAlign=top;shape=mxgraph.electrical.mosfets1.mosfet_p_no_bulk;" parent="1" vertex="1">
          <mxGeometry x="350" y="160" width="95" height="100" as="geometry" />
        </mxCell>
        <mxCell id="zlY2UUdzKbEh946Eg5NX-13" style="edgeStyle=orthogonalEdgeStyle;rounded=0;orthogonalLoop=1;jettySize=auto;html=1;exitX=0.7;exitY=1;exitDx=0;exitDy=0;exitPerimeter=0;entryX=0.7;entryY=1;entryDx=0;entryDy=0;entryPerimeter=0;endArrow=none;endFill=0;" parent="1" source="zlY2UUdzKbEh946Eg5NX-10" target="zlY2UUdzKbEh946Eg5NX-1" edge="1">
          <mxGeometry relative="1" as="geometry" />
        </mxCell>
        <mxCell id="zlY2UUdzKbEh946Eg5NX-14" style="edgeStyle=orthogonalEdgeStyle;rounded=0;orthogonalLoop=1;jettySize=auto;html=1;exitX=0.7;exitY=0;exitDx=0;exitDy=0;exitPerimeter=0;entryX=0.7;entryY=1;entryDx=0;entryDy=0;entryPerimeter=0;endArrow=none;endFill=0;" parent="1" source="zlY2UUdzKbEh946Eg5NX-10" target="zlY2UUdzKbEh946Eg5NX-9" edge="1">
          <mxGeometry relative="1" as="geometry" />
        </mxCell>
        <mxCell id="yDMT6fcXxwUuumCuaF8Q-3" style="edgeStyle=orthogonalEdgeStyle;rounded=0;orthogonalLoop=1;jettySize=auto;html=1;exitX=0;exitY=0.5;exitDx=0;exitDy=0;exitPerimeter=0;entryX=0;entryY=0.5;entryDx=0;entryDy=0;entryPerimeter=0;endArrow=none;endFill=0;strokeColor=#007FFF;strokeWidth=2;jumpStyle=arc;" edge="1" parent="1" source="zlY2UUdzKbEh946Eg5NX-10" target="zlY2UUdzKbEh946Eg5NX-3">
          <mxGeometry relative="1" as="geometry" />
        </mxCell>
        <mxCell id="zlY2UUdzKbEh946Eg5NX-10" value="" style="verticalLabelPosition=bottom;shadow=0;dashed=0;align=center;html=1;verticalAlign=top;shape=mxgraph.electrical.mosfets1.mosfet_p_no_bulk;" parent="1" vertex="1">
          <mxGeometry x="280" y="300" width="95" height="100" as="geometry" />
        </mxCell>
        <mxCell id="yDMT6fcXxwUuumCuaF8Q-1" value="" style="rounded=0;whiteSpace=wrap;html=1;fillColor=#ffe6cc;strokeColor=none;glass=0;opacity=50;" vertex="1" parent="1">
          <mxGeometry x="780" y="425" width="640" height="435" as="geometry" />
        </mxCell>
        <mxCell id="yDMT6fcXxwUuumCuaF8Q-5" value="" style="rounded=0;whiteSpace=wrap;html=1;fillColor=#0050ef;strokeColor=none;glass=0;opacity=50;fontColor=#ffffff;" vertex="1" parent="1">
          <mxGeometry x="820" y="470" width="160" height="220" as="geometry" />
        </mxCell>
        <mxCell id="yDMT6fcXxwUuumCuaF8Q-6" value="" style="rounded=0;whiteSpace=wrap;html=1;fillColor=#0050ef;strokeColor=none;glass=0;opacity=50;fontColor=#ffffff;" vertex="1" parent="1">
          <mxGeometry x="1020" y="470" width="160" height="220" as="geometry" />
        </mxCell>
        <mxCell id="yDMT6fcXxwUuumCuaF8Q-8" value="" style="rounded=0;whiteSpace=wrap;html=1;fillColor=#0050ef;strokeColor=none;glass=0;opacity=50;fontColor=#ffffff;" vertex="1" parent="1">
          <mxGeometry x="1220" y="470" width="160" height="220" as="geometry" />
        </mxCell>
        <mxCell id="yDMT6fcXxwUuumCuaF8Q-9" value="" style="rounded=0;whiteSpace=wrap;html=1;fillColor=#0050ef;strokeColor=none;glass=0;opacity=50;fontColor=#ffffff;" vertex="1" parent="1">
          <mxGeometry x="810" y="15" width="590" height="90" as="geometry" />
        </mxCell>
        <mxCell id="yDMT6fcXxwUuumCuaF8Q-10" value="" style="rounded=0;whiteSpace=wrap;html=1;fillColor=#fa6800;strokeColor=none;glass=0;opacity=50;fontColor=#000000;" vertex="1" parent="1">
          <mxGeometry x="810" y="745" width="590" height="90" as="geometry" />
        </mxCell>
        <mxCell id="yDMT6fcXxwUuumCuaF8Q-11" value="" style="rounded=0;whiteSpace=wrap;html=1;fillColor=#fa6800;strokeColor=none;glass=0;opacity=50;fontColor=#000000;" vertex="1" parent="1">
          <mxGeometry x="825" y="160" width="160" height="220" as="geometry" />
        </mxCell>
        <mxCell id="yDMT6fcXxwUuumCuaF8Q-12" value="" style="rounded=0;whiteSpace=wrap;html=1;fillColor=#fa6800;strokeColor=none;glass=0;opacity=50;fontColor=#000000;" vertex="1" parent="1">
          <mxGeometry x="1025" y="160" width="160" height="220" as="geometry" />
        </mxCell>
        <mxCell id="yDMT6fcXxwUuumCuaF8Q-13" value="" style="rounded=0;whiteSpace=wrap;html=1;fillColor=#fa6800;strokeColor=none;glass=0;opacity=50;fontColor=#000000;" vertex="1" parent="1">
          <mxGeometry x="1225" y="160" width="160" height="220" as="geometry" />
        </mxCell>
        <mxCell id="yDMT6fcXxwUuumCuaF8Q-14" value="&lt;font style=&quot;font-size: 26px;&quot;&gt;C&lt;/font&gt;" style="rounded=0;whiteSpace=wrap;html=1;fillColor=#1ba1e2;strokeColor=none;glass=0;opacity=80;fontColor=#ffffff;" vertex="1" parent="1">
          <mxGeometry x="870" y="128" width="60" height="595" as="geometry" />
        </mxCell>
        <mxCell id="yDMT6fcXxwUuumCuaF8Q-16" value="&lt;font style=&quot;font-size: 20px;&quot;&gt;A&lt;/font&gt;" style="rounded=0;whiteSpace=wrap;html=1;fillColor=#1ba1e2;strokeColor=none;glass=0;opacity=80;fontColor=#ffffff;" vertex="1" parent="1">
          <mxGeometry x="1070" y="128" width="60" height="595" as="geometry" />
        </mxCell>
        <mxCell id="yDMT6fcXxwUuumCuaF8Q-17" value="&lt;font style=&quot;font-size: 20px;&quot;&gt;B&lt;/font&gt;" style="rounded=0;whiteSpace=wrap;html=1;fillColor=#1ba1e2;strokeColor=none;glass=0;opacity=80;fontColor=#ffffff;" vertex="1" parent="1">
          <mxGeometry x="1275" y="127.5" width="60" height="595" as="geometry" />
        </mxCell>
        <mxCell id="yDMT6fcXxwUuumCuaF8Q-19" value="" style="rounded=0;whiteSpace=wrap;html=1;fillColor=#ffff88;strokeColor=none;glass=0;" vertex="1" parent="1">
          <mxGeometry x="830" y="40" width="560" height="40" as="geometry" />
        </mxCell>
        <mxCell id="yDMT6fcXxwUuumCuaF8Q-20" value="" style="rounded=0;whiteSpace=wrap;html=1;fillColor=#ffff88;strokeColor=none;glass=0;" vertex="1" parent="1">
          <mxGeometry x="830" y="40" width="30" height="360" as="geometry" />
        </mxCell>
        <mxCell id="yDMT6fcXxwUuumCuaF8Q-21" value="" style="rounded=0;whiteSpace=wrap;html=1;fillColor=#ffff88;strokeColor=none;glass=0;" vertex="1" parent="1">
          <mxGeometry x="960" y="180" width="100" height="180" as="geometry" />
        </mxCell>
        <mxCell id="yDMT6fcXxwUuumCuaF8Q-22" value="" style="rounded=0;whiteSpace=wrap;html=1;fillColor=#ffff88;strokeColor=none;glass=0;" vertex="1" parent="1">
          <mxGeometry x="990" y="100" width="30" height="260" as="geometry" />
        </mxCell>
        <mxCell id="yDMT6fcXxwUuumCuaF8Q-24" value="" style="rounded=0;whiteSpace=wrap;html=1;fillColor=#ffff88;strokeColor=none;glass=0;" vertex="1" parent="1">
          <mxGeometry x="990" y="100" width="380" height="30" as="geometry" />
        </mxCell>
        <mxCell id="yDMT6fcXxwUuumCuaF8Q-25" value="" style="rounded=0;whiteSpace=wrap;html=1;fillColor=#ffff88;strokeColor=none;glass=0;" vertex="1" parent="1">
          <mxGeometry x="1350" y="100" width="30" height="300" as="geometry" />
        </mxCell>
        <mxCell id="yDMT6fcXxwUuumCuaF8Q-27" value="" style="rounded=0;whiteSpace=wrap;html=1;fillColor=#ffff88;strokeColor=none;glass=0;" vertex="1" parent="1">
          <mxGeometry x="1150" y="140" width="30" height="270" as="geometry" />
        </mxCell>
        <mxCell id="yDMT6fcXxwUuumCuaF8Q-28" value="" style="rounded=0;whiteSpace=wrap;html=1;fillColor=#ffff88;strokeColor=none;glass=0;" vertex="1" parent="1">
          <mxGeometry x="1230" y="140" width="30" height="270" as="geometry" />
        </mxCell>
        <mxCell id="yDMT6fcXxwUuumCuaF8Q-29" value="" style="rounded=0;whiteSpace=wrap;html=1;fillColor=#ffff88;strokeColor=none;glass=0;" vertex="1" parent="1">
          <mxGeometry x="1150" y="390" width="110" height="30" as="geometry" />
        </mxCell>
        <mxCell id="yDMT6fcXxwUuumCuaF8Q-31" value="" style="rounded=0;whiteSpace=wrap;html=1;fillColor=#ffff88;strokeColor=none;glass=0;" vertex="1" parent="1">
          <mxGeometry x="1230" y="390" width="30" height="60" as="geometry" />
        </mxCell>
        <mxCell id="yDMT6fcXxwUuumCuaF8Q-32" value="" style="rounded=0;whiteSpace=wrap;html=1;fillColor=#ffff88;strokeColor=none;glass=0;" vertex="1" parent="1">
          <mxGeometry x="1230" y="430" width="150" height="30" as="geometry" />
        </mxCell>
        <mxCell id="yDMT6fcXxwUuumCuaF8Q-33" value="" style="rounded=0;whiteSpace=wrap;html=1;fillColor=#ffff88;strokeColor=none;glass=0;" vertex="1" parent="1">
          <mxGeometry x="1350" y="430" width="30" height="300" as="geometry" />
        </mxCell>
        <mxCell id="yDMT6fcXxwUuumCuaF8Q-35" value="" style="rounded=0;whiteSpace=wrap;html=1;fillColor=#ffff88;strokeColor=none;glass=0;" vertex="1" parent="1">
          <mxGeometry x="1150" y="490" width="100" height="180" as="geometry" />
        </mxCell>
        <mxCell id="yDMT6fcXxwUuumCuaF8Q-36" value="" style="rounded=0;whiteSpace=wrap;html=1;fillColor=#ffff88;strokeColor=none;glass=0;" vertex="1" parent="1">
          <mxGeometry x="830" y="410.5" width="350" height="30" as="geometry" />
        </mxCell>
        <mxCell id="yDMT6fcXxwUuumCuaF8Q-37" value="" style="rounded=0;whiteSpace=wrap;html=1;fillColor=#ffff88;strokeColor=none;glass=0;" vertex="1" parent="1">
          <mxGeometry x="830" y="410.5" width="30" height="320" as="geometry" />
        </mxCell>
        <mxCell id="yDMT6fcXxwUuumCuaF8Q-38" value="" style="rounded=0;whiteSpace=wrap;html=1;fillColor=#ffff88;strokeColor=none;glass=0;" vertex="1" parent="1">
          <mxGeometry x="940" y="450" width="30" height="320" as="geometry" />
        </mxCell>
        <mxCell id="yDMT6fcXxwUuumCuaF8Q-39" value="" style="rounded=0;whiteSpace=wrap;html=1;fillColor=#ffff88;strokeColor=none;glass=0;" vertex="1" parent="1">
          <mxGeometry x="1030" y="450" width="30" height="320" as="geometry" />
        </mxCell>
        <mxCell id="yDMT6fcXxwUuumCuaF8Q-40" value="" style="rounded=0;whiteSpace=wrap;html=1;fillColor=#ffff88;strokeColor=none;glass=0;" vertex="1" parent="1">
          <mxGeometry x="825" y="770" width="560" height="40" as="geometry" />
        </mxCell>
        <mxCell id="yDMT6fcXxwUuumCuaF8Q-41" value="" style="rounded=0;whiteSpace=wrap;html=1;fillColor=#ffe6cc;strokeColor=none;glass=0;opacity=50;" vertex="1" parent="1">
          <mxGeometry x="1520" y="450" width="640" height="435" as="geometry" />
        </mxCell>
        <mxCell id="yDMT6fcXxwUuumCuaF8Q-43" value="" style="rounded=0;whiteSpace=wrap;html=1;fillColor=#0050ef;strokeColor=none;glass=0;opacity=50;fontColor=#ffffff;" vertex="1" parent="1">
          <mxGeometry x="1600" y="495" width="470" height="220" as="geometry" />
        </mxCell>
        <mxCell id="yDMT6fcXxwUuumCuaF8Q-45" value="" style="rounded=0;whiteSpace=wrap;html=1;fillColor=#0050ef;strokeColor=none;glass=0;opacity=50;fontColor=#ffffff;" vertex="1" parent="1">
          <mxGeometry x="1570" y="40" width="570" height="90" as="geometry" />
        </mxCell>
        <mxCell id="yDMT6fcXxwUuumCuaF8Q-46" value="" style="rounded=0;whiteSpace=wrap;html=1;fillColor=#fa6800;strokeColor=none;glass=0;opacity=50;fontColor=#000000;" vertex="1" parent="1">
          <mxGeometry x="1550" y="770" width="590" height="90" as="geometry" />
        </mxCell>
        <mxCell id="yDMT6fcXxwUuumCuaF8Q-48" value="" style="rounded=0;whiteSpace=wrap;html=1;fillColor=#fa6800;strokeColor=none;glass=0;opacity=50;fontColor=#000000;" vertex="1" parent="1">
          <mxGeometry x="1600" y="185" width="470" height="220" as="geometry" />
        </mxCell>
        <mxCell id="yDMT6fcXxwUuumCuaF8Q-50" value="&lt;font style=&quot;font-size: 26px;&quot;&gt;C&lt;/font&gt;" style="rounded=0;whiteSpace=wrap;html=1;fillColor=#1ba1e2;strokeColor=none;glass=0;opacity=80;fontColor=#ffffff;" vertex="1" parent="1">
          <mxGeometry x="1660" y="155" width="60" height="595" as="geometry" />
        </mxCell>
        <mxCell id="yDMT6fcXxwUuumCuaF8Q-51" value="&lt;font style=&quot;font-size: 20px;&quot;&gt;A&lt;/font&gt;" style="rounded=0;whiteSpace=wrap;html=1;fillColor=#1ba1e2;strokeColor=none;glass=0;opacity=80;fontColor=#ffffff;" vertex="1" parent="1">
          <mxGeometry x="1810" y="153" width="60" height="595" as="geometry" />
        </mxCell>
        <mxCell id="yDMT6fcXxwUuumCuaF8Q-52" value="&lt;font style=&quot;font-size: 20px;&quot;&gt;B&lt;/font&gt;" style="rounded=0;whiteSpace=wrap;html=1;fillColor=#1ba1e2;strokeColor=none;glass=0;opacity=80;fontColor=#ffffff;" vertex="1" parent="1">
          <mxGeometry x="1955" y="155" width="60" height="595" as="geometry" />
        </mxCell>
        <mxCell id="yDMT6fcXxwUuumCuaF8Q-53" value="" style="rounded=0;whiteSpace=wrap;html=1;fillColor=#ffff88;strokeColor=none;glass=0;" vertex="1" parent="1">
          <mxGeometry x="1620" y="65" width="510" height="40" as="geometry" />
        </mxCell>
        <mxCell id="yDMT6fcXxwUuumCuaF8Q-54" value="" style="rounded=0;whiteSpace=wrap;html=1;fillColor=#ffff88;strokeColor=none;glass=0;" vertex="1" parent="1">
          <mxGeometry x="1620" y="65" width="30" height="360" as="geometry" />
        </mxCell>
        <mxCell id="yDMT6fcXxwUuumCuaF8Q-56" value="" style="rounded=0;whiteSpace=wrap;html=1;fillColor=#ffff88;strokeColor=none;glass=0;" vertex="1" parent="1">
          <mxGeometry x="1750" y="125" width="30" height="295" as="geometry" />
        </mxCell>
        <mxCell id="yDMT6fcXxwUuumCuaF8Q-57" value="" style="rounded=0;whiteSpace=wrap;html=1;fillColor=#ffff88;strokeColor=none;glass=0;" vertex="1" parent="1">
          <mxGeometry x="1750" y="125" width="310" height="30" as="geometry" />
        </mxCell>
        <mxCell id="yDMT6fcXxwUuumCuaF8Q-58" value="" style="rounded=0;whiteSpace=wrap;html=1;fillColor=#ffff88;strokeColor=none;glass=0;" vertex="1" parent="1">
          <mxGeometry x="2030" y="125" width="30" height="300" as="geometry" />
        </mxCell>
        <mxCell id="yDMT6fcXxwUuumCuaF8Q-62" value="" style="rounded=0;whiteSpace=wrap;html=1;fillColor=#ffff88;strokeColor=none;glass=0;" vertex="1" parent="1">
          <mxGeometry x="1900" y="215" width="30" height="235" as="geometry" />
        </mxCell>
        <mxCell id="yDMT6fcXxwUuumCuaF8Q-63" value="" style="rounded=0;whiteSpace=wrap;html=1;fillColor=#ffff88;strokeColor=none;glass=0;" vertex="1" parent="1">
          <mxGeometry x="1850" y="435.5" width="210" height="30" as="geometry" />
        </mxCell>
        <mxCell id="yDMT6fcXxwUuumCuaF8Q-64" value="" style="rounded=0;whiteSpace=wrap;html=1;fillColor=#ffff88;strokeColor=none;glass=0;" vertex="1" parent="1">
          <mxGeometry x="2030" y="450" width="30" height="300" as="geometry" />
        </mxCell>
        <mxCell id="yDMT6fcXxwUuumCuaF8Q-66" value="" style="rounded=0;whiteSpace=wrap;html=1;fillColor=#ffff88;strokeColor=none;glass=0;" vertex="1" parent="1">
          <mxGeometry x="1630" y="435.5" width="290" height="30" as="geometry" />
        </mxCell>
        <mxCell id="yDMT6fcXxwUuumCuaF8Q-67" value="" style="rounded=0;whiteSpace=wrap;html=1;fillColor=#ffff88;strokeColor=none;glass=0;" vertex="1" parent="1">
          <mxGeometry x="1620" y="435.5" width="30" height="320" as="geometry" />
        </mxCell>
        <mxCell id="yDMT6fcXxwUuumCuaF8Q-69" value="" style="rounded=0;whiteSpace=wrap;html=1;fillColor=#ffff88;strokeColor=none;glass=0;" vertex="1" parent="1">
          <mxGeometry x="1750" y="475" width="30" height="320" as="geometry" />
        </mxCell>
        <mxCell id="yDMT6fcXxwUuumCuaF8Q-70" value="" style="rounded=0;whiteSpace=wrap;html=1;fillColor=#ffff88;strokeColor=none;glass=0;" vertex="1" parent="1">
          <mxGeometry x="1565" y="795" width="560" height="40" as="geometry" />
        </mxCell>
      </root>
    </mxGraphModel>
  </diagram>
</mxfile>
